<svg width="24" height="24" viewBox="0 0 24 24" fill="none" xmlns="http://www.w3.org/2000/svg">
<g id="combine 1">
<path id="Vector" d="M10.0001 17.9999H5.00006C4.20441 17.9999 3.44135 17.6838 2.87874 17.1212C2.31613 16.5586 2.00006 15.7956 2.00006 14.9999V13.9999" stroke="black" stroke-width="2" stroke-linecap="round" stroke-linejoin="round"/>
<path id="Vector_2" d="M14 1.99991C14.5304 1.99991 15.0391 2.21062 15.4142 2.58569C15.7893 2.96077 16 3.46948 16 3.99991V7.99991C16 8.53034 15.7893 9.03905 15.4142 9.41412C15.0391 9.78919 14.5304 9.99991 14 9.99991" stroke="black" stroke-width="2" stroke-linecap="round" stroke-linejoin="round"/>
<path id="Vector_3" d="M20 1.99991C20.5304 1.99991 21.0391 2.21062 21.4142 2.58569C21.7893 2.96077 22 3.46948 22 3.99991V7.99991C22 8.53034 21.7893 9.03905 21.4142 9.41412C21.0391 9.78919 20.5304 9.99991 20 9.99991" stroke="black" stroke-width="2" stroke-linecap="round" stroke-linejoin="round"/>
<path id="Vector_4" d="M6.99994 21L9.99994 18L6.99994 15" stroke="black" stroke-width="2" stroke-linecap="round" stroke-linejoin="round"/>
<path id="Vector_5" d="M20 13.9999H16C14.8954 13.9999 14 14.8953 14 15.9999V19.9999C14 21.1045 14.8954 21.9999 16 21.9999H20C21.1046 21.9999 22 21.1045 22 19.9999V15.9999C22 14.8953 21.1046 13.9999 20 13.9999Z" stroke="black" stroke-width="2" stroke-linecap="round" stroke-linejoin="round"/>
<path id="Vector_6" d="M8.00006 1.99991H4.00006C2.89549 1.99991 2.00006 2.89534 2.00006 3.99991V7.99991C2.00006 9.10448 2.89549 9.99991 4.00006 9.99991H8.00006C9.10463 9.99991 10.0001 9.10448 10.0001 7.99991V3.99991C10.0001 2.89534 9.10463 1.99991 8.00006 1.99991Z" stroke="black" stroke-width="2" stroke-linecap="round" stroke-linejoin="round"/>
</g>
</svg>
