<svg width="24" height="24" viewBox="0 0 24 24" fill="none" xmlns="http://www.w3.org/2000/svg">
<g id="icon-qr-v1.3">
<rect width="24" height="24" fill="white"/>
<g id="code">
<path id="Vector" d="M17.0498 19.8833V18.4667H18.4665V19.8833H17.0498Z" fill="#737373"/>
<path id="Vector_2" d="M12.7998 17.05V15.6333H14.2165V17.05H12.7998Z" fill="#737373"/>
<path id="Vector_3" d="M12.7998 21.3H15.6331V19.8833H14.2165V18.4667H12.7998V21.3Z" fill="#737373"/>
<path id="Vector_4" d="M18.4664 18.4666V15.6333H19.8831V18.4666H18.4664Z" fill="#737373"/>
<path id="Vector_5" d="M19.8831 18.4667H21.2998V21.3H18.4664V19.8833H19.8831V18.4667Z" fill="#737373"/>
<path id="Vector_6" d="M18.4664 14.2166V12.7999H21.2998V15.6333H19.8831V14.2166H18.4664Z" fill="#737373"/>
<path id="Vector_7" d="M17.0498 14.2166H15.6331V17.0499H14.2164V18.4666H17.0498V14.2166Z" fill="#737373"/>
<path id="Vector_8" d="M12.7998 14.2166V12.7999H15.6331V14.2166H12.7998Z" fill="#737373"/>
</g>
<path id="Vector 13" d="M10.7 3H3.3C3.13431 3 3 3.13431 3 3.3V10.7C3 10.8657 3.13431 11 3.3 11H10.7C10.8657 11 11 10.8657 11 10.7V3.3C11 3.13431 10.8657 3 10.7 3Z" stroke="#737373"/>
<path id="Vector 15" d="M10.7 13H3.3C3.13431 13 3 13.1343 3 13.3V20.7C3 20.8657 3.13431 21 3.3 21H10.7C10.8657 21 11 20.8657 11 20.7V13.3C11 13.1343 10.8657 13 10.7 13Z" stroke="#737373"/>
<path id="Vector 14" d="M20.7 3H13.3C13.1343 3 13 3.13431 13 3.3V10.7C13 10.8657 13.1343 11 13.3 11H20.7C20.8657 11 21 10.8657 21 10.7V3.3C21 3.13431 20.8657 3 20.7 3Z" stroke="#737373"/>
<rect id="Rectangle 117" x="6" y="6" width="2" height="2" rx="0.2" fill="#737373"/>
<rect id="Rectangle 119" x="6" y="16" width="2" height="2" rx="0.2" fill="#737373"/>
<rect id="Rectangle 118" x="16" y="6" width="2" height="2" rx="0.2" fill="#737373"/>
</g>
</svg>
